# xmcd
#
# Track frame offsets:
#	150
#	13533
#	27690
#	41457
#	55832
#	69060
#	84112
#	100465
#	119469
#	133160
#	148412
#	160490
#	177427
#	192334
#	210780
#	227568
#
# Disc length: 3166 seconds
#
# Revision: 0
# Processed by: cddbd v1.5.2PL0 Copyright (c) Steve Scherf et al.
# Submitted via: EasyCDDAExtractor 10.2.0.1
#
DISCID=db0c5c10
DTITLE=Anne Murray - All Of Me [Disc 1]
DYEAR=2005
DGENRE=Country
TTITLE0=All Of Me
TTITLE1=As Time Goes By
TTITLE2=Dream A Little Dream Of Me
TTITLE3=I Wonder Who's Kissing Him Now
TTITLE4=I'm Gonna Sit Right Down And Write Myself A Letter
TTITLE5=Over The Rainbow
TTITLE6=Twilight Time
TTITLE7=My Buddy
TTITLE8=After You've Gone
TTITLE9=What'll I Do
TTITLE10=Don't Get Around Much Anymore
TTITLE11=Smile
TTITLE12=You Made Me Love You
TTITLE13=I'll Be Seeing You
TTITLE14=We'll Meet Again
TTITLE15=Snowbird
EXTD=
EXTT0=
EXTT1=
EXTT2=
EXTT3=
EXTT4=
EXTT5=
EXTT6=
EXTT7=
EXTT8=
EXTT9=
EXTT10=
EXTT11=
EXTT12=
EXTT13=
EXTT14=
EXTT15=
PLAYORDER=
